/* XPM */
static const char *aoc_xpm[] = {
/* width height num_colors chars_per_pixel */
"    24    24      256            2",
/* colors */
"`` c #ffffff",
"`. c #181f98",
"`# c #0f19e1",
"`a c #0a0f75",
"`b c #050fcc",
"`c c #64689e",
"`d c #f0f0f7",
"`e c #131cb2",
"`f c #212ccb",
"`g c #323dd7",
"`h c #3847f8",
"`i c #2832c3",
"`j c #666cda",
"`k c #a0a3e2",
"`l c #d2d2db",
"`m c #6066b8",
"`n c #6872ff",
"`o c #2230f9",
"`p c #3340f4",
"`q c #3745ff",
"`r c #5f6ffb",
"`s c #4b57c3",
"`t c #2c37de",
"`u c #cfd1f0",
"`v c #efefef",
"`w c #8790df",
"`x c #2937ff",
"`y c #3744e3",
"`z c #0f18d3",
"`A c #030dcd",
"`B c #050c91",
"`C c #252fc4",
"`D c #5d69c9",
"`E c #3c42b4",
"`F c #e0e2fd",
"`G c #c2c3cf",
"`H c #242b8e",
"`I c #3441f5",
"`J c #0c17e0",
"`K c #0d17d1",
"`L c #1c217f",
"`M c #323340",
"`N c #4e5075",
"`O c #5866d2",
"`P c #4855e4",
"`Q c #4b51c5",
"`R c #dfdfe3",
"`S c #c0c1c7",
"`T c #1c2387",
"`U c #1c26b9",
"`V c #0713ef",
"`W c #1d2289",
"`X c #3b3b43",
"`Y c #838383",
"`Z c #9b9c9f",
"`0 c #6f7293",
"`1 c #6a7bff",
"`2 c #3b47c9",
"`3 c #c2c3e3",
"`4 c #c6cafe",
"`5 c #1924cf",
"`6 c #2c38e7",
"`7 c #181fa7",
"`8 c #37395e",
".` c #747474",
".. c #999999",
".# c #979797",
".a c #949497",
".b c #52557e",
".c c #424dc6",
".d c #242c8a",
".e c #c2c5e9",
".f c #0c17d3",
".g c #202ac4",
".h c #242b9f",
".i c #4f4f4f",
".j c #676767",
".k c #575757",
".l c #535353",
".m c #6d6d6d",
".n c #757679",
".o c #5c628f",
".p c #2c37d4",
".q c #5056a5",
".r c #212dd3",
".s c #050dac",
".t c #30358f",
".u c #5b5b5b",
".v c #636363",
".w c #323232",
".x c #2b2b2b",
".y c #393939",
".z c #6a6a6a",
".A c #616376",
".B c #2a35d3",
".C c #a8addc",
".D c #3b46bf",
".E c #151c92",
".F c #373c9e",
".G c #a4a4a4",
".H c #707070",
".I c #484848",
".J c #515151",
".K c #363636",
".L c #3a3a3a",
".M c #5f5f5f",
".N c #43477f",
".O c #d1d2de",
".P c #777cbb",
".Q c #313a9d",
".R c #4f5cd8",
".S c #474b85",
".T c #f6f6f6",
".U c #7e7e7e",
".V c #6b6b6b",
".W c #454648",
".X c #5a5a5b",
".Y c #585a71",
".Z c #c8caee",
".0 c #424ece",
".1 c #6878f6",
".2 c #66666c",
".3 c #757575",
".4 c #5a5a5a",
".5 c #7f7f7f",
".6 c #8e8e91",
".7 c #2f2f30",
".8 c #4a4a4a",
"#` c #3e3e3e",
"#. c #9f9f9f",
"## c #5b64f2",
"#a c #4553e5",
"#b c #6975fe",
"#c c #cccccc",
"#d c #eaeaea",
"#e c #8f8f8f",
"#f c #b6b6b6",
"#g c #9d9d9d",
"#h c #505050",
"#i c #2f2f2f",
"#j c #434343",
"#k c #868686",
"#l c #f1f1f1",
"#m c #8791fe",
"#n c #313de2",
"#o c #c9cbf0",
"#p c #dddddd",
"#q c #9b9b9b",
"#r c #cecece",
"#s c #cfcfcf",
"#t c #919191",
"#u c #414141",
"#v c #373737",
"#w c #c9c9c9",
"#x c #4b4e93",
"#y c #2933c8",
"#z c #1d2afc",
"#A c #7077eb",
"#B c #616168",
"#C c #d0d0d0",
"#D c #a1a1a1",
"#E c #e8e8e8",
"#F c #f9f9f9",
"#G c #cdcdcd",
"#H c #656565",
"#I c #282828",
"#J c #353535",
"#K c #d2d3e9",
"#L c #585fd3",
"#M c #484b6f",
"#N c #4850cf",
"#O c #fefefe",
"#P c #bfbfbf",
"#Q c #6f6f6f",
"#R c #aaaaaa",
"#S c #f0f0f0",
"#T c #f8f8f8",
"#U c #343434",
"#V c #303030",
"#W c #c6c6c6",
"#X c #dfdfdf",
"#Y c #5e5e5e",
"#Z c #dedede",
"#0 c #969696",
"#1 c #acacac",
"#2 c #d7d7d7",
"#3 c #202020",
"#4 c #252525",
"#5 c #9e9e9e",
"#6 c #848484",
"#7 c #b3b3b3",
"#8 c #909090",
"a` c #4e4e4e",
"a. c #ededed",
"a# c #ececec",
"aa c #646464",
"ab c #1c1c1c",
"ac c #444444",
"ad c #c3c3c3",
"ae c #e1e1e1",
"af c #333333",
"ag c #828282",
"ah c #464646",
"ai c #858585",
"aj c #fdfdfd",
"ak c #e2e2e2",
"al c #777777",
"am c #b7b7b7",
"an c #3f3f3f",
"ao c #c8c8c8",
"ap c #808082",
"aq c #9c9c9e",
"ar c #3d3d3d",
"as c #a5a5a5",
"at c #e7e7e7",
"au c #d8d8d8",
"av c #c0c0c0",
"aw c #949494",
"ax c #a9a9a9",
"ay c #6c6c6c",
"az c #696969",
"aA c #292929",
"aB c #e5e5e5",
"aC c #939393",
"aD c #272727",
"aE c #212121",
"aF c #646465",
"aG c #707071",
"aH c #3b3b3b",
"aI c #a4a4a7",
"aJ c #989899",
"aK c #c7c7c7",
"aL c #606060",
"aM c #555555",
"aN c #565656",
"aO c #cbcbcb",
"aP c #2a2a2a",
"aQ c #1f1f1f",
"aR c #141414",
"aS c #494949",
"aT c #2d2d2d",
"aU c #767676",
"aV c #b4b4b4",
"aW c #585858",
"aX c #bbbbbb",
"aY c #dbdbdb",
"aZ c #d6d6d6",
"a0 c #d1d1d1",
"a1 c #d2d2d2",
"a2 c #ebebeb",
"a3 c #000000",
"a4 c #000000",
"a5 c #000000",
"a6 c #000000",
"a7 c #000000",
"a8 c #000000",
/* pixels */
"`````````````.`#`a`b`c`d````````````````````````",
"`````````````e`f`g`h`i`j`k``````````````````````",
"```````l`m`n`o`p`q`r`s`t`u``````````````````````",
"```````v`w`x`y`z`A`B`C`D`E`F````````````````````",
"```````G`H`I`J`K`L`M`N`O`P`Q`R``````````````````",
"```````S`T`U`V`W`X`Y`Z`0`1`2`3``````````````````",
"```````4`5`6`7`8.`...#.a.b.c.d``````````````````",
"``````.e.f.g.h.i.j.k.l.m.n.o.p``````````````````",
"``````.q.r.s.t.u.v.w.x.y.z.A.B``````````````````",
"``````.C.D.E.F.G.H.I.J.K.L.M.N.O````````````````",
"``````.P.Q.R.S.T.U.J.V.j.y.W.X.Y````````````````",
"``````.Z.0.1.2``.3.4.5.6.M.7.8#`#.``````````````",
"``````###a#b#c#d.V.M#e#f#g#h#i#j#k#l````````````",
"````#.#m#n#o``#p.m.V#q#r#s#t#u#v#v#w````````````",
"#s#x#y#z#A#B``#C.j.V#D#E#F#G#H#I#J#h````````````",
"#K#L#M#N#..4#O#P.M#Q#R#S``#T#R#U#i#V#W#X#Y#Z````",
"``````````#0#T#1.u#Q#R#S````#2#j#3#4.M#5.5#6````",
"``````````#7`v#8a`#Q.Ga.````a#aaabacad.U.j.I#.``",
"``ae.Lafafag#r.Hah.4ai#C``ajakal#Yamaa.v.8anafao",
"``#t#iafafapaq.kar.i.Vasatauavawaxayaz.laraA#YaB",
"``aCaDaDaEaFaG#u.xaH.kag.GaIaJaKaLaMaN#saO#Wae``",
"``..aPaQaRaS#haTaQ#4#vaaaUaVaB.l#.``````````````",
"``#2aWan#V#j#jan#uaaaiax#qaXae``````````````````",
"````aYaZa0a1abafanaU.Ta2#s``````````````````````"
};
