/* XPM */
static const char *aoc_16_xpm[] = {
/* width height num_colors chars_per_pixel */
"    16    16      256            2",
/* colors */
"`` c #ffffff",
"`. c #feffff",
"`# c #f6f6f6",
"`a c #1e26b6",
"`b c #121bb4",
"`c c #1f28bd",
"`d c #a2a5d5",
"`e c #eeeefe",
"`f c #fffffe",
"`g c #fefeff",
"`h c #d1d2e2",
"`i c #8d94f0",
"`j c #2935e4",
"`k c #3542f6",
"`l c #4756ef",
"`m c #3640ce",
"`n c #c7c9ee",
"`o c #fdfdfe",
"`p c #fdfdff",
"`q c #b7b9d2",
"`r c #2d3be6",
"`s c #212eef",
"`t c #0912be",
"`u c #1a2081",
"`v c #4551c5",
"`w c #686ed4",
"`x c #eaebf6",
"`y c #8b8daf",
"`z c #131db6",
"`A c #0d17db",
"`B c #2c2f63",
"`C c #79786d",
"`D c #7c82ad",
"`E c #3f4ee1",
"`F c #9397d0",
"`G c #fdfeff",
"`H c #fcfdfe",
"`I c #9297ea",
"`J c #101cd6",
"`K c #282d8f",
"`L c #63635e",
"`M c #8c8c8e",
"`N c #8b8a85",
"`O c #5d6296",
"`P c #3c46b4",
"`Q c #f4f4f9",
"`R c #fffffa",
"`S c #646bcd",
"`T c #050fc0",
"`U c #393d7d",
"`V c #626259",
"`W c #353538",
"`X c #3f3e40",
"`Y c #6d6e68",
"`Z c #444cbc",
"`0 c #f1f2ff",
"`1 c #fffffd",
"`2 c #fefefd",
"`3 c #757cc2",
"`4 c #1922a2",
"`5 c #6a6da9",
"`6 c #94938c",
"`7 c #49494b",
"`8 c #464646",
".` c #42423f",
".. c #51536f",
".# c #c3c4d3",
".a c #fdfdfd",
".b c #868bd3",
".c c #3b4acb",
".d c #a2a4b6",
".e c #adadaa",
".f c #585858",
".g c #89898a",
".h c #4a4a4b",
".i c #3a3938",
".j c #67676c",
".k c #f6f6f5",
".l c #fefefe",
".m c #f4f4ed",
".n c #646ff1",
".o c #6f7bf2",
".p c #eeeeeb",
".q c #919191",
".r c #656565",
".s c #b8b8b8",
".t c #989898",
".u c #39393a",
".v c #40403f",
".w c #c8c8c8",
".x c #c0c1d0",
".y c #484eab",
".z c #3641ef",
".A c #7f82ad",
".B c #f8f8f0",
".C c #868688",
".D c #6f6f6f",
".E c #d5d5d5",
".F c #ededed",
".G c #777777",
".H c #222223",
".I c #fafafa",
".J c #bfc1e7",
".K c #7276b9",
".L c #9a9ed8",
".M c #91918a",
".N c #e0e0e2",
".O c #797979",
".P c #767676",
".Q c #e0e0e0",
".R c #c6c6c6",
".S c #333333",
".T c #242424",
".U c #b1b1b1",
".V c #949494",
".W c #cecece",
".X c #d0d0d0",
".Y c #d3d3d3",
".Z c #626262",
".0 c #dddddd",
".1 c #f0f0f0",
".2 c #444444",
".3 c #343434",
".4 c #959595",
".5 c #707070",
".6 c #737373",
".7 c #f7f7f8",
".8 c #676769",
"#` c #28292a",
"#. c #79797a",
"## c #acacad",
"#a c #494949",
"#b c #5e5e5e",
"#c c #b7b7b7",
"#d c #dfdfdf",
"#e c #7e7e7e",
"#f c #909090",
"#g c #3f3f3f",
"#h c #202020",
"#i c #9d9d9d",
"#j c #1a1a1a",
"#k c #5b5b5c",
"#l c #6f6f70",
"#m c #2f2f2f",
"#n c #3e3e3e",
"#o c #7a7a79",
"#p c #b5b5b6",
"#q c #acacae",
"#r c #9b9b9b",
"#s c #a5a5a5",
"#t c #e7e7e7",
"#u c #eeeeee",
"#v c #555555",
"#w c #101010",
"#x c #323231",
"#y c #494948",
"#z c #2b2b2b",
"#A c #3a3a3a",
"#B c #676767",
"#C c #8c8c8c",
"#D c #cccccc",
"#E c #9f9f9f",
"#F c #e3e3e3",
"#G c #c9c9c9",
"#H c #a0a0a0",
"#I c #9a9a9a",
"#J c #3b3b3b",
"#K c #dedede",
"#L c #cdcdcd",
"#M c #f5f5f5",
"#N c #000000",
"#O c #000000",
"#P c #000000",
"#Q c #000000",
"#R c #000000",
"#S c #000000",
"#T c #000000",
"#U c #000000",
"#V c #000000",
"#W c #000000",
"#X c #000000",
"#Y c #000000",
"#Z c #000000",
"#0 c #000000",
"#1 c #000000",
"#2 c #000000",
"#3 c #000000",
"#4 c #000000",
"#5 c #000000",
"#6 c #000000",
"#7 c #000000",
"#8 c #000000",
"a` c #000000",
"a. c #000000",
"a# c #000000",
"aa c #000000",
"ab c #000000",
"ac c #000000",
"ad c #000000",
"ae c #000000",
"af c #000000",
"ag c #000000",
"ah c #000000",
"ai c #000000",
"aj c #000000",
"ak c #000000",
"al c #000000",
"am c #000000",
"an c #000000",
"ao c #000000",
"ap c #000000",
"aq c #000000",
"ar c #000000",
"as c #000000",
"at c #000000",
"au c #000000",
"av c #000000",
"aw c #000000",
"ax c #000000",
"ay c #000000",
"az c #000000",
"aA c #000000",
"aB c #000000",
"aC c #000000",
"aD c #000000",
"aE c #000000",
"aF c #000000",
"aG c #000000",
"aH c #000000",
"aI c #000000",
"aJ c #000000",
"aK c #000000",
"aL c #000000",
"aM c #000000",
"aN c #000000",
"aO c #000000",
"aP c #000000",
"aQ c #000000",
"aR c #000000",
"aS c #000000",
"aT c #000000",
"aU c #000000",
"aV c #000000",
"aW c #000000",
"aX c #000000",
"aY c #000000",
"aZ c #000000",
"a0 c #000000",
"a1 c #000000",
"a2 c #000000",
"a3 c #000000",
"a4 c #000000",
"a5 c #000000",
"a6 c #000000",
"a7 c #000000",
"a8 c #000000",
/* pixels */
"```.```#`a`b`c`d`e`f`g``````````",
"`g```h`i`j`k`l`m`n```o``````````",
"`p```q`r`s`t`u`v`w`x```g````````",
"`p```y`z`A`B`C`D`E`F```G````````",
"`H```I`J`K`L`M`N`O`P`Q``````````",
"```R`S`T`U`V`W`X`Y`Z`0`1````````",
"```2`3`4`5`6`7`8.`...#```o``````",
".a``.b.c.d.e.f.g.h.i.j.k``.l````",
"``.m.n.o.p.q.r.s.t.u.v.w``.a.l``",
".x.y.z.A.B.C.D.E.F.G.H.r``.I.a.l",
".J.K.L.M.N.O.P.Q``.R.S.T.U.V.W``",
"```2``.X.Y.Z.P.0``.1.2.3.4.5.6.F",
".7.8#`#.###a#b#c``#d#e#f.D#g#h#i",
"#d#g#j#k#l#m#n#o#p#q#r#b.G#s#r#t",
"#u#v#w#x#y#z#A#B#C#D#E#F.l``````",
"``#G#H#I.S#J.V#K#L#M``````.a.a.l"
};
