/* XPM */
static const char *appicon_xpm[] = {
/* width height num_colors chars_per_pixel */
"    64    64      256            2",
/* colors */
"`` c #141614",
"`. c #4ca2b4",
"`# c #ac9e84",
"`a c #4c4e4d",
"`b c #acd6e4",
"`c c #5cb2c4",
"`d c #dcd6cc",
"`e c #040e94",
"`f c #4c56a4",
"`g c #848a84",
"`h c #acbabc",
"`i c #74725c",
"`j c #8cb2bc",
"`k c #242e8c",
"`l c #848edc",
"`m c #bce2ec",
"`n c #8c9ea0",
"`o c #bcbee4",
"`p c #dceff4",
"`q c #2c2e2e",
"`r c #c4d2d4",
"`s c #84c6d4",
"`t c #4c5274",
"`u c #242ed0",
"`v c #64669c",
"`w c #947a48",
"`x c #c4baa4",
"`y c #74b6c4",
"`z c #040ecc",
"`A c #9c8a6c",
"`B c #949e9f",
"`C c #f4eeec",
"`D c #343a5c",
"`E c #9cc6cc",
"`F c #84979c",
"`G c #dce2e4",
"`H c #c4dadf",
"`I c #343ed4",
"`J c #cce2e6",
"`K c #3c3e3c",
"`L c #9caaac",
"`M c #acaeb0",
"`N c #5c5e5c",
"`O c #b4cacc",
"`P c #74767c",
"`Q c #c4ced4",
"`R c #749eac",
"`S c #141e94",
"`T c #4452e4",
"`U c #5c5e64",
"`V c #5c66d4",
"`W c #acdae4",
"`X c #bcbabd",
"`Y c #eceef2",
"`Z c #847a6c",
"`0 c #74becc",
"`1 c #a4a2a4",
"`2 c #cceaec",
"`3 c #54aabc",
"`4 c #6c542c",
"`5 c #64bacc",
"`6 c #343e9c",
"`7 c #ccc6b4",
"`8 c #9cd2dc",
".` c #eceaec",
".. c #141eb4",
".# c #0c0e74",
".a c #949294",
".b c #a4b6bc",
".c c #343635",
".d c #d4d2d4",
".e c #1c26cc",
".f c #c4c4ec",
".g c #6472fc",
".h c #84928c",
".i c #7c7a6c",
".j c #94c6d0",
".k c #2432fc",
".l c #9ca6a4",
".m c #f4fafc",
".n c #949696",
".o c #dceaf4",
".p c #3442f4",
".q c #bcb29c",
".r c #5c628c",
".s c #d4cec4",
".t c #545656",
".u c #6cb6c5",
".v c #5c62b4",
".w c #84becc",
".x c #2430c4",
".y c #0c17d4",
".z c #9c9e9f",
".A c #e4e2e4",
".B c #d4dadc",
".C c #d4e2e4",
".D c #b4b6b7",
".E c #242a8c",
".F c #646666",
".G c #bcc2c4",
".H c #ecf6f8",
".I c #848283",
".J c #cccecc",
".K c #242524",
".L c #5ca6bc",
".M c #aca69c",
".N c #bcd3d9",
".O c #dcdafc",
".P c #444ec9",
".Q c #8c8c8c",
".R c #747674",
".S c #7ca6b4",
".T c #ccd4d8",
".U c #2c36d7",
".V c #74bacb",
".W c #9ccedc",
".X c #444646",
".Y c #7c7c7c",
".Z c #4c5edc",
".0 c #bcdde3",
".1 c #bcbecc",
".2 c #7cbfcf",
".3 c #c4c7c9",
".4 c #84868c",
".5 c #54a6b8",
".6 c #64b5c7",
".7 c #dcdee2",
".8 c #b4c2c4",
"#` c #6c6e6d",
"#. c #9c9ee4",
"## c #747abc",
"#a c #444a6c",
"#b c #1c2280",
"#c c #9c9a9c",
"#d c #acccd4",
"#e c #64aebc",
"#f c #5c6acc",
"#g c #34368c",
"#h c #1c26bc",
"#i c #1c2afc",
"#j c #4c4e94",
"#k c #5c6efc",
"#l c #5c62f4",
"#m c #6c5e44",
"#n c #3c44b8",
"#o c #9cc2cc",
"#p c #a4aadc",
"#q c #948264",
"#r c #c4c2c4",
"#s c #3c46cc",
"#t c #0412ec",
"#u c #cccaec",
"#v c #6c7af8",
"#w c #848efc",
"#x c #343244",
"#y c #6c7294",
"#z c #1c1ea0",
"#A c #1c1e1c",
"#B c #b4a68c",
"#C c #84bac4",
"#D c #a49274",
"#E c #2c2a2c",
"#F c #4c56c4",
"#G c #f4f6fc",
"#H c #6c5a3c",
"#I c #94cedc",
"#J c #6c6654",
"#K c #3446e4",
"#L c #444880",
"#M c #54566c",
"#N c #646264",
"#O c #3c3a3d",
"#P c #6c76ec",
"#Q c #b4aa9c",
"#R c #040eac",
"#S c #ccced6",
"#T c #545254",
"#U c #b4bbbf",
"#V c #343234",
"#W c #a4c6cc",
"#X c #ccdee4",
"#Y c #444244",
"#Z c #a4aeb0",
"#0 c #b4b2b4",
"#1 c #bcc6c4",
"#2 c #1c228c",
"#3 c #646adc",
"#4 c #d4ecf2",
"#5 c #5cadbe",
"#6 c #a4d4dd",
"#7 c #3c46fc",
"#8 c #5c5a5c",
"a` c #8cc2d0",
"a. c #6c6a6c",
"a# c #4c4a4c",
"aa c #cccacc",
"ab c #747274",
"ac c #242ac4",
"ad c #dcdadc",
"ae c #c4e4ec",
"af c #e4f1f4",
"ag c #8cc9d4",
"ah c #947e54",
"ai c #7cb2c4",
"aj c #8c999c",
"ak c #4c56e4",
"al c #b4dde4",
"am c #ecf2fc",
"an c #6cbbcc",
"ao c #c4c6fc",
"ap c #94cadc",
"aq c #2c36fc",
"ar c #fcfcfc",
"as c #2c32c4",
"at c #0c18e4",
"au c #acaaac",
"av c #8c8e94",
"aw c #84aab4",
"ax c #2c3ae4",
"ay c #b4ced4",
"az c #343a9c",
"aA c #b4d6dc",
"aB c #4c4ec4",
"aC c #7cbacc",
"aD c #545ed4",
"aE c #343ee4",
"aF c #8c928c",
"aG c #242a9c",
"aH c #a4cedc",
"aI c #646efc",
"aJ c #54567c",
"aK c #646274",
"aL c #cccee4",
"aM c #8ca2a4",
"aN c #c4d6dc",
"aO c #94a2a4",
"aP c #f4f2f4",
"aQ c #9ccad4",
"aR c #dce6e8",
"aS c #c4dee4",
"aT c #cce6ec",
"aU c #acb2b4",
"aV c #bcbebd",
"aW c #ecf2f4",
"aX c #74c2d4",
"aY c #a4a6a5",
"aZ c #d4d6da",
"a0 c #7c7e74",
"a1 c #949a9c",
"a2 c #3446fc",
"a3 c #84c2d4",
"a4 c #9ca29c",
"a5 c #e4e6e9",
"a6 c #d4dee4",
"a7 c #d4e6e9",
"a8 c #848683",
/* pixels */
"arararararararararararararararararararararar#Gararar#Gar#G#G#G#G#G#G#Gar#Gar#Gararar#Gararararararararararararararararararararar",
"arararararararararararararararararararar#Gar#Gar#G#G#G#Gar#Gar#Gar#G#G#G#G#Gar#G#Gar#Gar#Gararararararararararararararararararar",
"arararararararararararararararararar#Gar#Gar#G#G#Gar#G#G#G#G#G#G#G#Gar#Gar#G#G#Gar#Gar#Gar#Garararararararararararararararararar",
"arararararararararararararararar#Gar#Gar#G#G#Gar#G#G#Gar#zat.#`z`v.`#G#G#G#G#G#G#G#G#G#Gar#Gar#Garararararararararararararararar",
"arararararararararararararar#Gar#G#Gar#G#G#G#G#G#G#G#G#G#z`u`I#7as#3#.aPar#GaraPar#G#G#G#Gar#Gar#Gararararararararararararararar",
"ararararararararararararar#Gar#Gar#G#G#G#Gar#GaPar.s.vaI.kaE#7#k#F.U#uar#GaPar#G#G#GaraPar#G#G#G#G#G#Gararararararararararararar",
"arararararararararararar#Gar#G#G#G#G#Gar#GaPar#G#G.``laq#K.y`z`e.x#f#n.OaPar#GaParaPar#G#G#G#Gar#Gar#Gar#Gararararararararararar",
"arararararararararar#Gar#G#G#Gar#G#G#G#G#Gar#G#G#G#r.E.pat.y#b#x`t`V`TaBad#G#Gar#G#G#GaParaParaP#G#Gar#Garararararararararararar",
"ararararararararar#Gar#Gar#G#G#G#GaraParaP#GaPar#G`X#2#h#t#2#O.I#c#y#v#s`oaParaPar#Gar#G#Gar#G#GaraP#Gar#G#G#Gararararararararar",
"arararararararar#Gar#G#G#G#Gar#GaPar#G#Gar#GaraPar.f.eax#z`Dab#c.n.naJ.P`k#G#G#G#G#GaParaP#GaPar#G#G#G#G#Gar#G#Garararararararar",
"arararararararar#G#Gar#G#G#G#Gar#G#GaParaPar#G#G#G`o.yacaG#T.F#8#T#`.R.r.UaParaPar#Gar#Gar#GaraParaParaPar#Gar#Garararararararar",
"ararararararar#Gar#G#G#Gar#GaParaParaP`CaP#G#Gar#G`f`u#R`k#8#N#V#E#Oa.aK.U.m#Gar#GaP#G#GaP`C`d`X`1.i#T#O`x#G#G#Gar#Garararararar",
"arararararar#Gar#G#G#G#G#Gar#G#GaP.``X.Q`X#GaPar#G#p#n`Sazau#`a#`a.c#O`N#Laa#G#G#Gar#GaPad.nab#T#V#Ta.au.7#Gar#Gar#Garararararar",
"ararararar#G#G#G#Gar#G#GaParaPaP.sa8#Na..J#Gar#GaP##azaD#jaP.Y#Ta..F#O.X#8#Mar#GaPar#GaP.q`K.t.Rau.J`YaP#G#G#G#G#Gar#Gararararar",
"arararar#Gar#Gar#G#G#Gar#GaP.``Xa.`N`Ma5aP#G#G#Gar.f.P.g.Far.R#8.YaF`N`qa#`K#c#Gar#GaPar`X`K#c.7aPa5aP#Gar#G#Gar#G#Gar#Garararar",
"arararar#G#Gar#G#G#GaPar#G`d.Qa..IaaaP#G#G#G#GaP#G#l`T.g.s.`a.`N.a.D`1`a#V#Y.I.`#G#Gar#G.Aab.Iad`Y`X.3aP#G#G#GaPar#G#Gararararar",
"ararar#Gar#G#G#G#Gar#GaP.sa.a.aU.A#G#Gar#Gar#Gar#c#w`Iaoar.7#`a.#c.J.J.a`K.c#O#r#GaParaPaP.3`P.z.Aau`a.Q.`#Gar#G#GaPar#Gar#Garar",
"arararar#Gar#G#GaParaP`Xa..Raa`C#G#G#G#G#GaP.s#j.x#i#P#8ar.d.F#``1a5araa.F#E#V`a#Gar#G#G#G`C`Ma.#0`Y#Sab.Yaa`C#Gar#G#Gar#Gararar",
"arar#Gar#G#G#Gar#GaP`X#8.QadaP.m#Gar#G#Gar#G#SaD#aaB#c#8ar.G#N#`au`Carar.M#V`q#V#r`d#8ad#G#Ga5.Q#`aa`C.3.Y.Q.saP#G#GaParar#Garar",
"arar#G#G#Gar#GaPaP`7`a#c`Y#G#G#G#G#G#GaPar#G#G#G#G#G#G.aarau#8#`auaWarar.B#Y.K.K`N.z.I.I#G#G#G.A.R.naP#G.da8.t#c.Aar#G#G#Gararar",
"ar#Gar#G#G#G#G#G`7#N#caPar#Gar#G#Gar#Gar#G#G#G#G#G#G#G#0`Y.a`a#`aY`Yarar`Y#N#A#Y#r.Y.F.X#car#G`C.Q#8.7#GaP.A`M`Pa8aa`Car#G#Gar#G",
"ar#Gar#Gar#GaPad#N#ca5#G#G#G#G#G#G#GaP#GaPar#Gad#O#V#V.I.J`i#Y#8a8.sarar.A.R`N.D.F#Na##Y#V#r#GaP.D.YaZ#G#G#G`Y`Xa8.a.d#G#Gar#Gar",
"#Gar#G#G#Gar.Aa8.Y#G#Gar#G#Gar#GaParar#Gar#GaP.Q`q#V#V.I#c.t`K#Ta.aY.`.B#r.aaua.a.#T`K.K`N.7#G#GaPa5aP#Gar#G#G`C#S.n.a.d#G#Gar#G",
"ar#Gar#G#GaP.a.i.d#G#G#G#G#G#Gar#GaParaP#G#Gar.a.K.K.K#Nab#Y#E#O.t.I`1`1a1aa`N.t#T.3.3#rad#G#G#G#Gar#G#G#G#G#G#GaPaa.I#c.`#Gar#G",
"ar#G#G#GaPad#T#raP#G#Gar#G#GaParaPar#G#GaraP#G.n#E#A``a#`a`q#A.K.c.F.R.D.A`a#c#Gar#G#G#G#G#GaraPar#G#G#Gar#G#Gar#G#G.d.a.J#G#Gar",
"arar#Gar#G.M.RaPar#G#G#G#Gar#G#Gar#G#GaPar#G#G`d#8#Y`q#Y#Y#Y#Y#Na8au#c.Dad#Gar#G#G#GaParaParaPar#G#G#G#G#GaPar#G#G#G`CauaY#Gar#G",
"#G#G#G#G#Gab.D#G#G#Gar#GaParaParaP#Gar#GaPar#G#G.d.saa.J#A#V`K.R`C.A.3#G#G#G#G#GaPar#Gar#G#Gar#G#GaParaPar#G#GaPar#G#GaZa8#G#Gar",
"ar#Gar#G#G#T.A#G#G#G#Gar#G#Gar#G#GaPar#Gar#GaP#G#G#G#G#G#G#G#G#G.m#Gar#Gar#G#Gar#GaParaParaP#GaPar#G#Gar#GaPar#G#G#Gar`C.Q#Gar#G",
"#Gar#GaPar.i.`#G#Gar#GaParaP#GaPar#GaParaPar#Gar#Gar#G#G#Gar#G#G#G#G#G#G#GaParaPar#G#G#G#Gar#Gar#GaParaPar#G#GaraPar#GaP#c#G#Gar",
"ar#G#Gar#G.a`C#G#G#G#Gar#G#Gar#GaPar#G#G#G#GaPar#G#G#GaraP#GaPar#Gar#G#Gar#G#GaraParaParaP#GaPar#Gar#G#G#GaParaParaP#G#G.n#G#G#G",
"#G#G#G#G#G.a#G#Gar#GaParaParaPar#G#GaraPar#Gar#GaParaPar#Gar#G#GaParaParaParaPar#G#Gar#Gar#GaraP#GaParaPar#G#Gar#G#GaraP.aar#G#G",
"#G#G#GaPar.Q#G#G#Gar#G#G#G#Gar#GaParaPar#GaP#G#Gar#G#GaParaPar#Gar#G#G#G#G#G#GaParaP#GaParaPar#Gar#G#Gar#GaParaParaP#G`C.a#G#Gar",
"ar#Gar#G#Ga8`C#GaParaParaParaPar#G#Gar#GaPar#GaParaPar#G#G#GaParaParaParaPar#Gar#G#Gar#G#G#G#GaParaParaPar#G#G#G#Gar#G.A.i#G#G#G",
"#G#G#G#G#G`ZaZ#Gar#G#G#Gar#G#G#GaParaPar#G#Gar#G#GaraParaPar#G#G#G#Gar#G#GaParaParaP#GaParaPar#G#G#G#G#G#GaParaParaP#G.s#N#G#G#G",
"ar#G#Gar#G#Q.z.`#G#GaraP#GaPar#Gar#G#G#GaParaParaPar#G#G#G#GaraParaP#GaPar#G#G#G#Gar#Gar#Gar#GaParaParaPar#Gar#G#Gar`CaY.I#Gar#G",
"#Gar#GaPar.A.Q`X#G#GaParar#GaParaP#GaPar#G#Gar#G#GaParaParaPar#G#Gar#Gar#GaParaParaParaP#GaPar#Gar#Gar#G#GaParaParaP.7.Y`M#G#Gar",
"ar#G#Gar#GaPaV#8#c.`#G#GaPar#GaP`C.`ar#GaParaPar#Gar#G#G#G#GaParaP#GaPar#Gar#Gar#G#G#Gar#Gar#GaParaP#GaPar#G#G#G#G`Caua.ad#Gar#G",
"#Gar#G#G#G#GaP.d.I#c.daPar#G#GaP.i.Y`Y#Gar#G#GaParaParaPar#Gar#Gar#GaraP#GaParaParaParaP#GaPar#G#Gar#Gar#GaParaPaP.3.R.zaP#G#Gar",
"ar#G#G#G#Gar#GaP.3a..t#0.`aP#G#G.Q#Yad#G#GaPar#G#G#G#GaPad#r.3aZ.7.``C#Gar#G#G#G#Gar#G#Gar#G#GaParaP#GaPar#Gar#Gad.I.Qad#G#Gar#G",
"ar#Gar#GaPar#G#G#G`C`M#T#N#0.`aP.`a.aY.`#Gar#GaParaPar`Y#U`B`B.naO.z.zaY`M.GaaaZ`C#GaParaPar#Gar#G#Gar#G#GaPaP.A.aab.JaP#Gar#Gar",
"ar#Gar#Gar#G#G#G#G#G#G.`au.R.a.s`Y.D`a#c.`#GaPar#GaraPaWaR.T.8.b`LaM.h`F`naOaj.n.M`Car#G#GaParaParaParaParar.A.a.i.DaP#G#G#Gar#G",
"#Gar#G#GaP#GaraPar#G#GaP.`aVa8.I.D.A.Dab`1.`ar#G#G#Gaf.m.H.H.Haf`p`2.0#W`j.S.S`R.h`d#G#Gar#G#G#G#G#G#GaraP.`a8ab.D.`#G#Gar#G#Gar",
"ar#Gar#Gar#GaPar#GaPar#G#G#G.7`1.Q.daP`M#8.zaP#GaPaPafaf.Hafaf`p`p`2`m`W`8ag`s.jaF.saraP#GaParaParaParaP.da8a.`X.`#G#G#G#Gar#Gar",
"ar#Gar#G#GaPar#G#Gar#GaPar#G#GaPad.AaP.3.F`a.`#GaraRaf`p#4#4`p#4`2aeal#6#Iag`s.0.Q`7aParar#G#Gar#G#G`Caa#`ab#0`Y#G#Gar#Gar#Garar",
"arar#Gar#Gar#GaParaPar#G#Gar#G#Ga5.3av#N#O.F.A#GaWa7#4aR#4aeaeaeaeal`W#6#I`s.waR`g`x#G#GaParaP#GaP.A#0a#ab.3.`#G#G#G#G#GaraParar",
"arar#Gar#GaPar#G#G#G#GaParaP`d`1#N#Y#Oa.au.daP#G`Jaeaeae`2aeal`W`W#6#6#Iag`saH.Ba8.qaPar#G#Gar.`aaa8a#.YaZaP#G#G#GaraPar#Gar#Gar",
"ararar#Gar#G#GaParaPar#G#GaPa8#Va..n.3a5#G#G#Gaf.0.0.0alaAal`m#6`8#I#Iag`saCaT.Ta0#Bar#GaP`Cad.M#8#Naua5aP#G#GaraPar#Gar#Gararar",
"arararar#Gar#Gar#Gar#GaPar#G#G#G#G#G#Gar#G#G#G.0`b`WaA#6`W`8#6#6#Iag.2.2.2aQ`J`ra8`#aPar.``M.I#8ab.J#G#G#Gar#GaPar#G#GaraPararar",
"arararar#Gar#GaParaPar#G#G#Gar#Gar#G#GaParaPa7aH#6#6#6#I#I#I#Iagag`s.2`0.V`Ja7#1.i#Dar#Gadab#`a4.A#G#G#G#GaPar#G#GaParararararar",
"arararar#Gar#Gar#G#G#GaParaP#GaParaPar#G#G#G.WapaQaQapagagag`sa3.2.2.2.V.j`J.C`h.i`A#GaPa5`X.d`Y#G#Gar#Gar#G#GaParar#G#Garararar",
"ararararar#Gar#GaPar#Gar#Gar#Gar#G#G#GaPar.0.waga`aga3a3.2.2.2`0.V.V.V`y`HaS.C#Z`i`AaPar#G#G#G#Gar#G#GaParaPar#Gar#GaraParararar",
"arararararar#Garar#GaP#GaParaP#GaPar#Gar`Y.2.VaC.V.2`y.u.u.u.u.u.u.u.ua`#X`Ha6aO#J`w.m#G#Gar#G#G#G#G#Gar#G#G#Gar#GaraPararararar",
"arararararar#G#G#Gar#Gar#G#Gar#GaraParaP#dan.u.u.u.u#5#5#e#5#e#e#5#e#e.N`H`HaZ`B#mah#G#GaParaParaParaP#GaPar#GaPar#Garararararar",
"ararararararararaPar#GaParaP#GaPar#G#Gar#6`0`0an.u#e.5.5.5.5.5.5.5.L#CaNaNaN#1`n#H`w#Gar#G#G#G#Gar#Gar#Gar#GarararaParararararar",
"ararararararararararar#G#Gar#Gar#GaPar#G#GaW#XaAag.u`5`c#5.5.5`.`..5#daNaNaN#U`n`4`w`Y#GaraParaP#GaParaParar#GaraPararararararar",
"ararararararararar#G#Gar#G#GaPar#G#G#GaPar#G#G#GaP.T`O`E.w.6.6#5`3ai`r.N.NaNaYaj`4`w.daP#GaraPar#Gar#Gar#G#GaraParararararararar",
"arararararararararararaParar#G#GaPar#Gar#G#G#Gar#GaP.A.B.d.T`O#o#C#d.N`Qay.T`n`F`Z.M`YaraPar#G#GaPar#G#GaraParararararararararar",
"ararararararararararar#Gar#Garar#GaParaP#Gar#G#G#G#G#G#G#G.`.7aZ.T#S`r.N`Q#1aj`B.7aP.maPar#GaPar#G#GaraParararararararararararar",
"arararararararararararar#GaraParar#G#Gar#GaPar#G#G#G#G#G#Gar#G#G#G.`.7.d.J#U#raP#Gar#G#G#G#Gar#Garar#Gararararararararararararar",
"ararararararararararararararar#Garar#GaPar#G#GaPar#Gar#G#G#G#Gar#G#G#G#GaPaP#G#G#GaParaPar#Gar#GaraParararararararararararararar",
"arararararararararararararararar#GaParar#Gar#Gar#GaPar#G#Gar#G#G#G#Gar#G#Gar#GaraPar#Gar#GaraPararararararararararararararararar",
"arararararararararararararararararar#G#GaraPar#Gar#G#G#GaPar#G#GaParaParaP#G#Gar#Gar#G#Gararar#Garararararararararararararararar",
"ararararararararararararararararararar#Gar#G#GaraPararar#G#Gar#Gar#Gar#Gar#GaraPar#GaraParaParararararararararararararararararar",
"ararararararararararararararararararararararaParar#G#G#GaraPar#G#Gar#G#Gar#Gararar#Garararararararararararararararararararararar"
};
