/* XPM */
static const char *brain_xpm[] = {
/* width height num_colors chars_per_pixel */
"    24    24      256            2",
/* colors */
"`` c #0c121c",
"`. c #848a8c",
"`# c #4c4e54",
"`a c #2c323c",
"`b c #c4c6c4",
"`c c #6c6e6c",
"`d c #a4aaac",
"`e c #1c222c",
"`f c #3c4244",
"`g c #5c5e64",
"`h c #7c7e84",
"`i c #141a24",
"`j c #9c9a9c",
"`k c #b4babc",
"`l c #343a3c",
"`m c #242a2c",
"`n c #747674",
"`o c #fcfefc",
"`p c #4c4a54",
"`q c #64666c",
"`r c #949294",
"`s c #54565c",
"`t c #d4d2d4",
"`u c #acb2b4",
"`v c #444a4c",
"`w c #1c1a24",
"`x c #14161c",
"`y c #343234",
"`z c #9ca2a4",
"`A c #2c2a2c",
"`B c #8c8a8c",
"`C c #545254",
"`D c #747274",
"`E c #242224",
"`F c #444244",
"`G c #646264",
"`H c #84868c",
"`I c #c4c2c4",
"`J c #3c3a3c",
"`K c #7c7a7c",
"`L c #343644",
"`M c #0c1624",
"`N c #cccacc",
"`O c #6c7274",
"`P c #acaaac",
"`Q c #848284",
"`R c #141e2c",
"`S c #bcbebc",
"`T c #6c6a6c",
"`U c #d4d6d4",
"`V c #b4b2b4",
"`W c #1c1e24",
"`X c #34363c",
"`Y c #a4a6a4",
"`Z c #2c2e34",
"`0 c #8c8e8c",
"`1 c #242634",
"`2 c #44464c",
"`3 c #3c3e44",
"`4 c #0c1224",
"`5 c #4c5254",
"`6 c #c4cacc",
"`7 c #6c6e74",
"`8 c #5c6264",
".` c #7c8284",
".. c #141a2c",
".# c #9c9ea4",
".a c #242a34",
".b c #74767c",
".c c #646a6c",
".d c #94969c",
".e c #545a64",
".f c #444a54",
".g c #141624",
".h c #34323c",
".i c #2c2a34",
".j c #54525c",
".k c #24262c",
".l c #44424c",
".m c #64626c",
".n c #3c3a44",
".o c #7c7a84",
".p c #acaeb4",
".q c #bcbec4",
".r c #d4d6dc",
".s c #b4b6bc",
".t c #1c1e2c",
".u c #a4a6ac",
".v c #8c8e94",
".w c #000000",
".x c #000000",
".y c #000000",
".z c #000000",
".A c #000000",
".B c #000000",
".C c #000000",
".D c #000000",
".E c #000000",
".F c #000000",
".G c #000000",
".H c #000000",
".I c #000000",
".J c #000000",
".K c #000000",
".L c #000000",
".M c #000000",
".N c #000000",
".O c #000000",
".P c #000000",
".Q c #000000",
".R c #000000",
".S c #000000",
".T c #000000",
".U c #000000",
".V c #000000",
".W c #000000",
".X c #000000",
".Y c #000000",
".Z c #000000",
".0 c #000000",
".1 c #000000",
".2 c #000000",
".3 c #000000",
".4 c #000000",
".5 c #000000",
".6 c #000000",
".7 c #000000",
".8 c #000000",
"#` c #000000",
"#. c #000000",
"## c #000000",
"#a c #000000",
"#b c #000000",
"#c c #000000",
"#d c #000000",
"#e c #000000",
"#f c #000000",
"#g c #000000",
"#h c #000000",
"#i c #000000",
"#j c #000000",
"#k c #000000",
"#l c #000000",
"#m c #000000",
"#n c #000000",
"#o c #000000",
"#p c #000000",
"#q c #000000",
"#r c #000000",
"#s c #000000",
"#t c #000000",
"#u c #000000",
"#v c #000000",
"#w c #000000",
"#x c #000000",
"#y c #000000",
"#z c #000000",
"#A c #000000",
"#B c #000000",
"#C c #000000",
"#D c #000000",
"#E c #000000",
"#F c #000000",
"#G c #000000",
"#H c #000000",
"#I c #000000",
"#J c #000000",
"#K c #000000",
"#L c #000000",
"#M c #000000",
"#N c #000000",
"#O c #000000",
"#P c #000000",
"#Q c #000000",
"#R c #000000",
"#S c #000000",
"#T c #000000",
"#U c #000000",
"#V c #000000",
"#W c #000000",
"#X c #000000",
"#Y c #000000",
"#Z c #000000",
"#0 c #000000",
"#1 c #000000",
"#2 c #000000",
"#3 c #000000",
"#4 c #000000",
"#5 c #000000",
"#6 c #000000",
"#7 c #000000",
"#8 c #000000",
"a` c #000000",
"a. c #000000",
"a# c #000000",
"aa c #000000",
"ab c #000000",
"ac c #000000",
"ad c #000000",
"ae c #000000",
"af c #000000",
"ag c #000000",
"ah c #000000",
"ai c #000000",
"aj c #000000",
"ak c #000000",
"al c #000000",
"am c #000000",
"an c #000000",
"ao c #000000",
"ap c #000000",
"aq c #000000",
"ar c #000000",
"as c #000000",
"at c #000000",
"au c #000000",
"av c #000000",
"aw c #000000",
"ax c #000000",
"ay c #000000",
"az c #000000",
"aA c #000000",
"aB c #000000",
"aC c #000000",
"aD c #000000",
"aE c #000000",
"aF c #000000",
"aG c #000000",
"aH c #000000",
"aI c #000000",
"aJ c #000000",
"aK c #000000",
"aL c #000000",
"aM c #000000",
"aN c #000000",
"aO c #000000",
"aP c #000000",
"aQ c #000000",
"aR c #000000",
"aS c #000000",
"aT c #000000",
"aU c #000000",
"aV c #000000",
"aW c #000000",
"aX c #000000",
"aY c #000000",
"aZ c #000000",
"a0 c #000000",
"a1 c #000000",
"a2 c #000000",
"a3 c #000000",
"a4 c #000000",
"a5 c #000000",
"a6 c #000000",
"a7 c #000000",
"a8 c #000000",
/* pixels */
"`o`o`o`o`o`o`o`o`o`o`o`o`o`o`o`o`o`o`o`o`o`o`o`o",
"`o`o`o`o`o`o`o`o`o`Y`r`g`#`p`q.v`V`o`o`o`o`o`o`o",
"`o`o`o`o`o`P`h`2`E`w..`w`l`s.i.g`w`2`P`o`o`o`o`o",
"`o`o`o`o`q`e.t.t`L.d.#`Q`N`o`..g`M.g`i`q`o`o`o`o",
"`o`o`Q`1.t...n`G`b.#`o`o.j`1.i...k`B`G.g`T`o`o`o",
"`o`T`1..`i.l`6`o`..t`Q.f`e`i`4`M`W`t`o.h`x`.`o`o",
"`B.t`R`w`f`U.b.i`1`W`w.t`l.j`v.n`r`o`v`1`4`W`o`o",
"`v.g.a`G.b`o`G`R`#`S.b`Q`o`o`V.q.s`o`g.g.g```C`o",
"`3.g`2`j`c.m`a.n`b.s`o.u.s`b`w`i`i`h`3....`4```o",
"`2.g`1.s`#.e`t`t`T.t`L`W`E`I`2.g.g...t`i.g.g.g.b",
"`q.g`i`q`#`F.s`#.a.t`R...g`Z`e`M.g.g`3.`.l`i`M`s",
"`o`l.i`e.k`X`3`i`R.t..`i`a`7`e.g`M`4.h.p`o.b`x`7",
"`o`o`o`o`o`j`m`T`1`s`Y.m.p`V`p`1.i`e.g`i.k`3.g.u",
"`o`o`o`o`o`o`A.#`N`S`D`h`s`y`h`b.p`r`.`D.f`e`2`o",
"`o`o`o`o`o`o`g.k`D.l`W.k`7`N.s`g.k.t`L`g`K`H`o`o",
"`o`o`o`o`o`o`o`Y`7`p.``b`o`o`v.g`M.g`4``.g`X`o`o",
"`o`o`o`o`o`o`o`o`o`o`o.h`W.q`P.g`4`i`M.g`W`r`o`o",
"`o`o`o`o`o`o`o`o`o`o`o`o`J`D`o`X`4.g.g.a`.`o`o`o",
"`o`o`o`o`o`o`o`o`o`o`o`o`o`J`o`o`2.j`.`o`o`o`o`o",
"`o`o`o`o`o`o`o`o`o`o`o`o`o`H`C`o`o`o`o`o`o`o`o`o",
"`o`o`o`o`o`o`o`o`o`o`o`o`o`o`X.m`o`o`o`o`o`o`o`o",
"`o`o`o`o`o`o`o`o`o`o`o`o`o`o`T`8`o`o`o`o`o`o`o`o",
"`o`o`o`o`o`o`o`o`o`o`o`o`o`o`o`o`o`o`o`o`o`o`o`o",
"`o`o`o`o`o`o`o`o`o`o`o`o`o`o`o`o`o`o`o`o`o`o`o`o"
};
