/* XPM */
static const char *check_xpm[] = {
/* width height num_colors chars_per_pixel */
"    24    24      256            2",
/* colors */
"`` c #ffffff",
"`. c #fefefe",
"`# c #fffffe",
"`a c #fafbf8",
"`b c #f6f8f4",
"`c c #fefffe",
"`d c #fdfdff",
"`e c #c1d39e",
"`f c #9fba63",
"`g c #e2e9d6",
"`h c #fcfdfe",
"`i c #b7cb97",
"`j c #d3e2a0",
"`k c #abc56a",
"`l c #cbd9b7",
"`m c #fcfdfd",
"`n c #bacc97",
"`o c #c6d898",
"`p c #e6f399",
"`q c #9dbb4e",
"`r c #e3e9df",
"`s c #c3d494",
"`t c #ecf79f",
"`u c #b0cb4c",
"`v c #cdd9bc",
"`w c #fefefd",
"`x c #b8cc98",
"`y c #bed291",
"`z c #ebf7a1",
"`A c #bad545",
"`B c #9eb971",
"`C c #fffeff",
"`D c #b8cb97",
"`E c #bbcf8e",
"`F c #e6f39e",
"`G c #cfe555",
"`H c #a6c062",
"`I c #e5ece0",
"`J c #b7cc8a",
"`K c #e4f09c",
"`L c #d1e757",
"`M c #9ebd3f",
"`N c #c5d4b3",
"`O c #b7cb98",
"`P c #b4ca88",
"`Q c #e4f19d",
"`R c #cbe253",
"`S c #bcd651",
"`T c #a5be7a",
"`U c #f8faf8",
"`V c #fefffd",
"`W c #b8cb9a",
"`X c #afc683",
"`Y c #e2f09b",
"`Z c #c3dd4e",
"`0 c #c5de51",
"`1 c #98b652",
"`2 c #ebefe8",
"`3 c #d5e0c7",
"`4 c #c6d5af",
"`5 c #fbfcf9",
"`6 c #b8cb9b",
"`7 c #aec482",
"`8 c #e1ef9c",
".` c #bcd746",
".. c #cae156",
".# c #9dbd43",
".a c #bbcda5",
".b c #fdfefc",
".c c #b2c694",
".d c #a0bc52",
".e c #b6cc7a",
".f c #a6bd82",
".g c #fefefc",
".h c #fdfefd",
".i c #bacd9d",
".j c #aac27e",
".k c #e0ee9b",
".l c #b8d443",
".m c #c3dc50",
".n c #aecb42",
".o c #acc283",
".p c #bdcea4",
".q c #90b237",
".r c #c2db4a",
".s c #d5e779",
".t c #b5ca80",
".u c #a4bd7f",
".v c #bbcea0",
".w c #a5bf79",
".x c #deed9b",
".y c #b6d341",
".z c #b8d446",
".A c #bed84d",
".B c #88ab42",
".C c #e4ebdd",
".D c #e8eee4",
".E c #97b650",
".F c #b4d144",
".G c #accc36",
".H c #d0e473",
".I c #b3ca7f",
".J c #a3bc7e",
".K c #bdd0a3",
".L c #a3bc76",
".M c #dceb99",
".N c #b2d13d",
".O c #afce3e",
".P c #bed94b",
".Q c #9ab942",
".R c #c9d6b7",
".S c #a9c184",
".T c #95b833",
".U c #bed84b",
".V c #abcb3d",
".W c #a9ca33",
".X c #cde26f",
".Y c #b4cb80",
".Z c #9fb97b",
".0 c #a9c080",
".1 c #dae996",
".2 c #afce3a",
".3 c #aaca39",
".4 c #b7d445",
".5 c #a4c239",
".6 c #95b268",
".7 c #f9faf7",
".8 c #99b571",
"#` c #97ba35",
"#. c #bbd747",
"## c #a7c838",
"#a c #a4c72f",
"#b c #c7de6a",
"#c c #b6ce7a",
"#d c #cee184",
"#e c #accd39",
"#f c #a6c735",
"#g c #abcc3a",
"#h c #b4d143",
"#i c #8fb04e",
"#j c #e9efe3",
"#k c #96b36b",
"#l c #97b834",
"#m c #b8d444",
"#n c #a3c534",
"#o c #a2c52d",
"#p c #b1cf45",
"#q c #a4c630",
"#r c #a4c632",
"#s c #a4c634",
"#t c #b5d242",
"#u c #95b53f",
"#v c #d3dec6",
"#w c #f7f9f5",
"#x c #93b166",
"#y c #97b933",
"#z c #b5d141",
"#A c #a0c331",
"#B c #9fc32d",
"#C c #a2c532",
"#D c #accd3a",
"#E c #9cbd33",
"#F c #9db774",
"#G c #feffff",
"#H c #f4f7f1",
"#I c #92b064",
"#J c #98ba32",
"#K c #b1cf3e",
"#L c #9cc02d",
"#M c #9dc12c",
"#N c #a2c430",
"#O c #afcd3f",
"#P c #95b35a",
"#Q c #f0f4ed",
"#R c #f4f7f2",
"#S c #92b062",
"#T c #b4d240",
"#U c #a6c935",
"#V c #b7d342",
"#W c #84a82d",
"#X c #c5d5b2",
"#Y c #91af5e",
"#Z c #90b328",
"#0 c #9cbe2b",
"#1 c #8db22a",
"#2 c #acc389",
"#3 c #edf2e6",
"#4 c #b0c595",
"#5 c #a2bb81",
"#6 c #b7cb9e",
"#7 c #f8faf5",
"#8 c #000000",
"a` c #000000",
"a. c #000000",
"a# c #000000",
"aa c #000000",
"ab c #000000",
"ac c #000000",
"ad c #000000",
"ae c #000000",
"af c #000000",
"ag c #000000",
"ah c #000000",
"ai c #000000",
"aj c #000000",
"ak c #000000",
"al c #000000",
"am c #000000",
"an c #000000",
"ao c #000000",
"ap c #000000",
"aq c #000000",
"ar c #000000",
"as c #000000",
"at c #000000",
"au c #000000",
"av c #000000",
"aw c #000000",
"ax c #000000",
"ay c #000000",
"az c #000000",
"aA c #000000",
"aB c #000000",
"aC c #000000",
"aD c #000000",
"aE c #000000",
"aF c #000000",
"aG c #000000",
"aH c #000000",
"aI c #000000",
"aJ c #000000",
"aK c #000000",
"aL c #000000",
"aM c #000000",
"aN c #000000",
"aO c #000000",
"aP c #000000",
"aQ c #000000",
"aR c #000000",
"aS c #000000",
"aT c #000000",
"aU c #000000",
"aV c #000000",
"aW c #000000",
"aX c #000000",
"aY c #000000",
"aZ c #000000",
"a0 c #000000",
"a1 c #000000",
"a2 c #000000",
"a3 c #000000",
"a4 c #000000",
"a5 c #000000",
"a6 c #000000",
"a7 c #000000",
"a8 c #000000",
/* pixels */
"```````````````````````````````````````````.`.`#",
"```````````````````````````````````````.```a`b``",
"`````````````````````````````````````c`c`d`e`f`g",
"```````````````````````````````````#`#`h`i`j`k`l",
"`````````````````````````````````.```m`n`o`p`q`r",
"```````````````````````````````c`c```n`s`t`u`v``",
"`````````````````````````````#`w```x`y`z`A`B`C`#",
"```````````````````````````.```C`D`E`F`G`H`I```.",
"`````````````````````````#`#```i`J`K`L`M`N```w``",
"```````c`w```````````````w```O`P`Q`R`S`T`U```c``",
"```.```````#`c```````c`V```W`X`Y`Z`0`1`2```w````",
"```.```3`4`5```w```#`.```6`7`8.`...#.a``.b``````",
"`#``.c.d.e.f.g```..h``.i.j.k.l.m.n.o```#````````",
"``.p.q.r.s.t.u`5````.v.w.x.y.z.A.B.C```w````````",
".D.E`Z.F.G.H.I.J`w.K.L.M.N.O.P.Q.R``.b``````````",
"``.S.T.U.V.W.X.Y.Z.0.1.2.3.4.5.6``.b````````````",
"``.7.8#`#.###a#b#c#d#e#f#g#h#i#j```.````````````",
"`.```a#k#l#m#n#o#p#q#r#s#t#u#v```w``````````````",
"```w``#w#x#y#z#A#B#C#A#D#E#F#G`#`#``````````````",
"````.h``#H#I#J#K#L#M#N#O#P#Q```.````````````````",
"```````.``#R#S#J#T#U#V#W#X``.h``````````````````",
"````````.b``#H#Y#Z#0#1#2```V````````````````````",
"``````````.h``#3#4#5#6#7```c````````````````````",
"`````````````c`.```````.````````````````````````"
};
