/* XPM */
static const char *gear_xpm[] = {
/* width height num_colors chars_per_pixel */
"    24    24      256            2",
/* colors */
"`` c #ffffff",
"`. c #fbfbfb",
"`# c #acadad",
"`a c #797b7b",
"`b c #676868",
"`c c #777979",
"`d c #a7a7a7",
"`e c #f9f9f9",
"`f c #e7e7e7",
"`g c #0d1010",
"`h c #040707",
"`i c #070a0a",
"`j c #dcdcdc",
"`k c #c9c9c9",
"`l c #b6b8b8",
"`m c #fdfdfd",
"`n c #fefefe",
"`o c #dbdcdc",
"`p c #585a5a",
"`q c #4e4f4f",
"`r c #d5d5d5",
"`s c #f8f8f8",
"`t c #ebebeb",
"`u c #333535",
"`v c #434646",
"`w c #a3a4a4",
"`x c #878888",
"`y c #0e1111",
"`z c #0b0e0e",
"`A c #7c7d7d",
"`B c #abacac",
"`C c #494c4c",
"`D c #2a2c2c",
"`E c #e4e5e5",
"`F c #575a5a",
"`G c #494b4b",
"`H c #b6b7b7",
"`I c #050808",
"`J c #a6a7a7",
"`K c #3e4040",
"`L c #0c0f0f",
"`M c #555656",
"`N c #909191",
"`O c #929393",
"`P c #5c5d5d",
"`Q c #2f3131",
"`R c #fcfcfc",
"`S c #d6d6d6",
"`T c #282b2b",
"`U c #cecece",
"`V c #313434",
"`W c #060909",
"`X c #c5c6c6",
"`Y c #e6e6e6",
"`Z c #373a3a",
"`0 c #131515",
"`1 c #d8d9d9",
"`2 c #e2e3e3",
"`3 c #1a1d1d",
"`4 c #2e3131",
"`5 c #dedede",
"`6 c #f3f3f3",
"`7 c #575959",
"`8 c #747575",
".` c #868888",
".. c #4b4c4c",
".# c #eeeeee",
".a c #9d9e9e",
".b c #babbbb",
".c c #cbcccc",
".d c #8c8d8d",
".e c #cccdcd",
".f c #dddddd",
".g c #7f8181",
".h c #9fa0a0",
".i c #a5a6a6",
".j c #8f9090",
".k c #bbbcbc",
".l c #181b1b",
".m c #484a4a",
".n c #585b5b",
".o c #131616",
".p c #b0b0b0",
".q c #0a0d0d",
".r c #969797",
".s c #a4a5a5",
".t c #bdbebe",
".u c #edeeee",
".v c #111414",
".w c #090c0c",
".x c #717272",
".y c #e1e2e2",
".z c #e5e5e5",
".A c #7d7f7f",
".B c #e3e3e3",
".C c #6c6e6e",
".D c #2c2e2e",
".E c #2d3030",
".F c #0f1212",
".G c #5c5e5e",
".H c #e1e1e1",
".I c #141717",
".J c #0e1010",
".K c #1a1c1c",
".L c #101313",
".M c #1d2020",
".N c #8e8f8f",
".O c #919292",
".P c #a8a9a9",
".Q c #525454",
".R c #080b0b",
".S c #f6f6f6",
".T c #aeafaf",
".U c #888a8a",
".V c #d7d7d7",
".W c #c6c7c7",
".X c #f0f0f0",
".Y c #212323",
".Z c #161919",
".0 c #e8e9e9",
".1 c #000000",
".2 c #000000",
".3 c #000000",
".4 c #000000",
".5 c #000000",
".6 c #000000",
".7 c #000000",
".8 c #000000",
"#` c #000000",
"#. c #000000",
"## c #000000",
"#a c #000000",
"#b c #000000",
"#c c #000000",
"#d c #000000",
"#e c #000000",
"#f c #000000",
"#g c #000000",
"#h c #000000",
"#i c #000000",
"#j c #000000",
"#k c #000000",
"#l c #000000",
"#m c #000000",
"#n c #000000",
"#o c #000000",
"#p c #000000",
"#q c #000000",
"#r c #000000",
"#s c #000000",
"#t c #000000",
"#u c #000000",
"#v c #000000",
"#w c #000000",
"#x c #000000",
"#y c #000000",
"#z c #000000",
"#A c #000000",
"#B c #000000",
"#C c #000000",
"#D c #000000",
"#E c #000000",
"#F c #000000",
"#G c #000000",
"#H c #000000",
"#I c #000000",
"#J c #000000",
"#K c #000000",
"#L c #000000",
"#M c #000000",
"#N c #000000",
"#O c #000000",
"#P c #000000",
"#Q c #000000",
"#R c #000000",
"#S c #000000",
"#T c #000000",
"#U c #000000",
"#V c #000000",
"#W c #000000",
"#X c #000000",
"#Y c #000000",
"#Z c #000000",
"#0 c #000000",
"#1 c #000000",
"#2 c #000000",
"#3 c #000000",
"#4 c #000000",
"#5 c #000000",
"#6 c #000000",
"#7 c #000000",
"#8 c #000000",
"a` c #000000",
"a. c #000000",
"a# c #000000",
"aa c #000000",
"ab c #000000",
"ac c #000000",
"ad c #000000",
"ae c #000000",
"af c #000000",
"ag c #000000",
"ah c #000000",
"ai c #000000",
"aj c #000000",
"ak c #000000",
"al c #000000",
"am c #000000",
"an c #000000",
"ao c #000000",
"ap c #000000",
"aq c #000000",
"ar c #000000",
"as c #000000",
"at c #000000",
"au c #000000",
"av c #000000",
"aw c #000000",
"ax c #000000",
"ay c #000000",
"az c #000000",
"aA c #000000",
"aB c #000000",
"aC c #000000",
"aD c #000000",
"aE c #000000",
"aF c #000000",
"aG c #000000",
"aH c #000000",
"aI c #000000",
"aJ c #000000",
"aK c #000000",
"aL c #000000",
"aM c #000000",
"aN c #000000",
"aO c #000000",
"aP c #000000",
"aQ c #000000",
"aR c #000000",
"aS c #000000",
"aT c #000000",
"aU c #000000",
"aV c #000000",
"aW c #000000",
"aX c #000000",
"aY c #000000",
"aZ c #000000",
"a0 c #000000",
"a1 c #000000",
"a2 c #000000",
"a3 c #000000",
"a4 c #000000",
"a5 c #000000",
"a6 c #000000",
"a7 c #000000",
"a8 c #000000",
/* pixels */
"`````````````````.`#`a`b`b`c`d`e````````````````",
"`````````````````f`g`h`h`h`h`i`j````````````````",
"`````````````````k`h`h`h`h`h`h`l````````````````",
"```````e`m```n`o`p`h`h`h`h`h`h`q`r`n```m`s``````",
"`````t`u`v`w`x`y`h`h`h`h`h`h`h`h`z`A`B`C`D`E````",
"```m`F`h`h`h`h`h`h`h`h`h`h`h`h`h`h`h`h`h`h`G`.``",
"```H`i`h`h`h`h`h`h`h`h`h`h`h`h`h`h`h`h`h`h`I`J``",
"`n`K`h`h`h`h`h`h`h`L`M`N`O`P`y`h`h`h`h`h`h`h`Q`R",
"`S`i`h`h`h`h`h`h`T`U`````````S`V`h`h`h`h`h`h`W`X",
"`Y`Z`h`h`h`h`h`0`1`````````````2`3`h`h`h`h`h`4`5",
"```6`7`h`h`h`h`8````````````````.``h`h`h`h...#``",
"````.a`h`h`h`h.b````````````````.c`h`h`h`h.d````",
"`````O`h`h`h`h.e````````````````.f`h`h`h`h.g````",
"````.h`h`h`h`h.i`````````````````H`h`h`h`h.j````",
"``.k.l`h`h`h`h.m`R`````````````n.n`h`h`h`h.o.p``",
".e.q`h`h`h`h`h`I.r`n``````````.s`i`h`h`h`h`h`i.t",
".u.v`h`h`h`h`h`h.w.x.y`m`n.z.A.q`h`h`h`h`h`h`z.B",
"``.C`h`h`h`h`h`h`h`h`g.D.E.F`h`h`h`h`h`h`h`h.G``",
"``.H.I`h`h`h`h`h`h`h`h`h`h`h`h`h`h`h`h`h`h.J`r``",
"````.h`W`h.K.o`h`h`h`h`h`h`h`h`h`h.L.M`h`h.N````",
"`````m.O.P`6.f.Q.R`h`h`h`h`h`h`W`G`S.S.T.U`.````",
"```````````````m.h`h`h`h`h`h`h.j`R``````````````",
"````````````````.V`I`h`h`h`h`h.W````````````````",
"````````````````.X.Y`h`h`h`h.Z.0````````````````"
};
