/* XPM */
static const char *info_xpm[] = {
/* width height num_colors chars_per_pixel */
"    24    24      256            2",
/* colors */
"`` c #ffffff",
"`. c #e5e5e5",
"`# c #a9a9a9",
"`a c #7b7b7b",
"`b c #5c5c5c",
"`c c #4d4d4d",
"`d c #e6e6e6",
"`e c #888888",
"`f c #4e4e4e",
"`g c #4b4b4b",
"`h c #545454",
"`i c #636363",
"`j c #bdbdbd",
"`k c #606060",
"`l c #a8a8a8",
"`m c #e0e0e0",
"`n c #fbfbfb",
"`o c #fefefe",
"`p c #bebebe",
"`q c #adadad",
"`r c #4c4c4c",
"`s c #505050",
"`t c #f9f9f9",
"`u c #4f4f4f",
"`v c #565656",
"`w c #d2d2d2",
"`x c #f4f4f4",
"`y c #c1c1c1",
"`z c #d6d6d6",
"`A c #f7f7f7",
"`B c #676767",
"`C c #b2b2b2",
"`D c #e7e7e7",
"`E c #a7a7a7",
"`F c #cecece",
"`G c #6d6d6d",
"`H c #616161",
"`I c #8a8a8a",
"`J c #c7c7c7",
"`K c #7d7d7d",
"`L c #939393",
"`M c #f0f0f0",
"`N c #dfdfdf",
"`O c #838383",
"`P c #767676",
"`Q c #707070",
"`R c #717171",
"`S c #fcfcfc",
"`T c #fafafa",
"`U c #dbdbdb",
"`V c #c5c5c5",
"`W c #5f5f5f",
"`X c #7f7f7f",
"`Y c #aaaaaa",
"`Z c #7e7e7e",
"`0 c #898989",
"`1 c #cacaca",
"`2 c #535353",
"`3 c #878787",
"`4 c #b8b8b8",
"`5 c #d1d1d1",
"`6 c #b9b9b9",
"`7 c #cfcfcf",
"`8 c #5d5d5d",
".` c #000000",
".. c #000000",
".# c #000000",
".a c #000000",
".b c #000000",
".c c #000000",
".d c #000000",
".e c #000000",
".f c #000000",
".g c #000000",
".h c #000000",
".i c #000000",
".j c #000000",
".k c #000000",
".l c #000000",
".m c #000000",
".n c #000000",
".o c #000000",
".p c #000000",
".q c #000000",
".r c #000000",
".s c #000000",
".t c #000000",
".u c #000000",
".v c #000000",
".w c #000000",
".x c #000000",
".y c #000000",
".z c #000000",
".A c #000000",
".B c #000000",
".C c #000000",
".D c #000000",
".E c #000000",
".F c #000000",
".G c #000000",
".H c #000000",
".I c #000000",
".J c #000000",
".K c #000000",
".L c #000000",
".M c #000000",
".N c #000000",
".O c #000000",
".P c #000000",
".Q c #000000",
".R c #000000",
".S c #000000",
".T c #000000",
".U c #000000",
".V c #000000",
".W c #000000",
".X c #000000",
".Y c #000000",
".Z c #000000",
".0 c #000000",
".1 c #000000",
".2 c #000000",
".3 c #000000",
".4 c #000000",
".5 c #000000",
".6 c #000000",
".7 c #000000",
".8 c #000000",
"#` c #000000",
"#. c #000000",
"## c #000000",
"#a c #000000",
"#b c #000000",
"#c c #000000",
"#d c #000000",
"#e c #000000",
"#f c #000000",
"#g c #000000",
"#h c #000000",
"#i c #000000",
"#j c #000000",
"#k c #000000",
"#l c #000000",
"#m c #000000",
"#n c #000000",
"#o c #000000",
"#p c #000000",
"#q c #000000",
"#r c #000000",
"#s c #000000",
"#t c #000000",
"#u c #000000",
"#v c #000000",
"#w c #000000",
"#x c #000000",
"#y c #000000",
"#z c #000000",
"#A c #000000",
"#B c #000000",
"#C c #000000",
"#D c #000000",
"#E c #000000",
"#F c #000000",
"#G c #000000",
"#H c #000000",
"#I c #000000",
"#J c #000000",
"#K c #000000",
"#L c #000000",
"#M c #000000",
"#N c #000000",
"#O c #000000",
"#P c #000000",
"#Q c #000000",
"#R c #000000",
"#S c #000000",
"#T c #000000",
"#U c #000000",
"#V c #000000",
"#W c #000000",
"#X c #000000",
"#Y c #000000",
"#Z c #000000",
"#0 c #000000",
"#1 c #000000",
"#2 c #000000",
"#3 c #000000",
"#4 c #000000",
"#5 c #000000",
"#6 c #000000",
"#7 c #000000",
"#8 c #000000",
"a` c #000000",
"a. c #000000",
"a# c #000000",
"aa c #000000",
"ab c #000000",
"ac c #000000",
"ad c #000000",
"ae c #000000",
"af c #000000",
"ag c #000000",
"ah c #000000",
"ai c #000000",
"aj c #000000",
"ak c #000000",
"al c #000000",
"am c #000000",
"an c #000000",
"ao c #000000",
"ap c #000000",
"aq c #000000",
"ar c #000000",
"as c #000000",
"at c #000000",
"au c #000000",
"av c #000000",
"aw c #000000",
"ax c #000000",
"ay c #000000",
"az c #000000",
"aA c #000000",
"aB c #000000",
"aC c #000000",
"aD c #000000",
"aE c #000000",
"aF c #000000",
"aG c #000000",
"aH c #000000",
"aI c #000000",
"aJ c #000000",
"aK c #000000",
"aL c #000000",
"aM c #000000",
"aN c #000000",
"aO c #000000",
"aP c #000000",
"aQ c #000000",
"aR c #000000",
"aS c #000000",
"aT c #000000",
"aU c #000000",
"aV c #000000",
"aW c #000000",
"aX c #000000",
"aY c #000000",
"aZ c #000000",
"a0 c #000000",
"a1 c #000000",
"a2 c #000000",
"a3 c #000000",
"a4 c #000000",
"a5 c #000000",
"a6 c #000000",
"a7 c #000000",
"a8 c #000000",
/* pixels */
"```````````````.`#`a`b`c`c`b`a`#`.``````````````",
"```````````d`e`f`g`g`h`i`i`h`g`g`f`e`d``````````",
"`````````j`h`g`k`l`m`n`o`o`n`m`l`k`g`h`p````````",
"```````q`r`s`l`t`````````````````t`l`u`r`q``````",
"`````p`r`v`w`````````x`y`z```````````w`v`r`p````",
"```d`h`s`w`````````A`B`g`g`C```````````w`u`h`D``",
"```e`g`E```````````F`g`g`g`G`````````````l`g`e``",
"`.`f`H`t```````````d`u`g`g`I`````````````t`k`f`d",
"`#`g`l```````````````J`K`L`M```````````````l`g`#",
"`a`g`m`````````````````````````````````````N`g`a",
"`b`h`n```````````q`O`K`P`Q`R`S`````````````T`h`b",
"`c`i`o```````````U`V`W`g`g`h`n`````````````o`i`c",
"`c`i`o```````````````X`g`g`h`n`````````````o`i`c",
"`b`h`n```````````````X`g`g`h`n`````````````T`h`b",
"`a`g`m```````````````X`g`g`h`n`````````````N`g`a",
"`#`g`l```````````````X`g`g`h`n`````````````l`g`Y",
"`.`f`k`t`````````````X`g`g`h`n```````````t`k`f`d",
"```e`g`l`````````````Z`g`g`h`n```````````E`g`0``",
"```d`h`u`w```````1`L`2`g`g`g`3`4```````5`u`h`D``",
"`````p`r`v`w`````U`6`6`6`6`6`6`7`````5`v`r`p````",
"```````q`r`u`l`t`````````````````t`E`u`r`q``````",
"`````````j`h`g`k`l`N`n`o`o`T`N`l`k`g`h`p````````",
"```````````D`e`f`g`g`h`i`i`h`g`g`f`0`D``````````",
"```````````````.`#`a`b`c`c`8`a`#`d``````````````"
};
