/* XPM */
static const char *lua_xpm[] = {
/* width height num_colors chars_per_pixel */
"    24    24      256            2",
/* colors */
"`` c #6c5e34",
"`. c #5cb2c4",
"`# c #b4b2b4",
"`a c #b4dae4",
"`b c #4ca2b4",
"`c c #8cb6bc",
"`d c #8c8a7c",
"`e c #dcdedc",
"`f c #b4cacc",
"`g c #8c9e94",
"`h c #94cedc",
"`i c #cceaec",
"`j c #cccac4",
"`k c #74b2bc",
"`l c #ccdadc",
"`m c #dcf2f4",
"`n c #a49e94",
"`o c #8c7644",
"`p c #b4d6dc",
"`q c #a4b6bc",
"`r c #a4dae4",
"`s c #74c6dc",
"`t c #bce2e4",
"`u c #7c9294",
"`v c #84969c",
"`w c #8cc6d4",
"`x c #c4c6c4",
"`y c #84aebc",
"`z c #a4ced4",
"`A c #846e44",
"`B c #b4bebc",
"`C c #f4f2f4",
"`D c #5caabc",
"`E c #dceaec",
"`F c #9c9e8c",
"`G c #74bac4",
"`H c #a4aa9c",
"`I c #c4dadc",
"`J c #cce6ec",
"`K c #9cc6cc",
"`L c #a4d6dc",
"`M c #b4aeac",
"`N c #746a54",
"`O c #6cbed4",
"`P c #54aabc",
"`Q c #b4ced4",
"`R c #ccd2cc",
"`S c #9c824c",
"`T c #9c9684",
"`U c #a4aaac",
"`V c #b4bab4",
"`W c #948a7c",
"`X c #94a6a4",
"`Y c #7c7a6c",
"`Z c #c4d2dc",
"`0 c #84c2cc",
"`1 c #8ccad4",
"`2 c #f4fafc",
"`3 c #84bac4",
"`4 c #6cb6c4",
"`5 c #bcdae4",
"`6 c #54a2b4",
"`7 c #dce6ec",
"`8 c #bcc6c4",
".` c #ecf2f4",
".. c #c4e2ec",
".# c #c4cec4",
".a c #c4bebc",
".b c #eceaec",
".c c #7cbecc",
".d c #7c6234",
".e c #94becc",
".f c #849294",
".g c #949e9c",
".h c #9ccedc",
".i c #ccf2f4",
".j c #cccec4",
".k c #d4dadc",
".l c #bcd2d4",
".m c #acb6b4",
".n c #8c9694",
".o c #acced4",
".p c #8c7244",
".q c #bcbebc",
".r c #acaaa4",
".s c #d4e2e4",
".t c #acd6dc",
".u c #84867c",
".v c #84cadc",
".w c #fcfafc",
".x c #6c6244",
".y c #64b2c4",
".z c #bcb6ac",
".A c #b4dee4",
".B c #94b6bc",
".C c #848a8c",
".D c #e4e2e4",
".E c #d4eaf4",
".F c #74b6cc",
".G c #e4f2f4",
".H c #acdae4",
".I c #bce6ec",
".J c #74a2b4",
".K c #94c2cc",
".L c #9caaac",
".M c #847254",
".N c #64aebc",
".O c #e4eae4",
".P c #9ca69c",
".Q c #74becc",
".R c #a4aea4",
".S c #c4dee4",
".T c #74725c",
".U c #d4d6d4",
".V c #9c9a94",
".W c #acaaac",
".X c #bcbabc",
".Y c #84c6d4",
".Z c #94cad4",
".0 c #54a6b4",
".1 c #bccacc",
".2 c #c4ced4",
".3 c #bcd6dc",
".4 c #acbac4",
".5 c #8c9a94",
".6 c #d4e6e4",
".7 c #6c5e3c",
".8 c #5cb6cc",
"#` c #b4b6b4",
"#. c #8c7a5c",
"## c #9ca2a4",
"#a c #8c826c",
"#b c #6cc6dc",
"#c c #949284",
"#d c #7cc2d4",
"#e c #e4e6e4",
"#f c #7ca2ac",
"#g c #8c9ea4",
"#h c #bcced4",
"#i c #4ca6bc",
"#j c #8cbac4",
"#k c #dce2e4",
"#l c #74b6c4",
"#m c #ccdee4",
"#n c #c4cacc",
"#o c #a4d2dc",
"#p c #b4c2c4",
"#q c #dceef4",
"#r c #9ccad4",
"#s c #54aec4",
"#t c #9c9a8c",
"#u c #a4aeb4",
"#v c #7c7e74",
"#w c #ecf6fc",
"#x c #d4dee4",
"#y c #acd2dc",
"#z c #848e94",
"#A c #94c6d4",
"#B c #9caeb4",
"#C c #94d2dc",
"#D c #f4f6f4",
"#E c #5caebc",
"#F c #c4d6dc",
"#G c #f4fefc",
"#H c #bcdee4",
"#I c #c4e6ec",
"#J c #eceeec",
"#K c #94a29c",
"#L c #9cd2dc",
"#M c #bcc2bc",
"#N c #fcfefc",
"#O c #d4eef4",
"#P c #e4f6f4",
"#Q c #acdee4",
"#R c #b4cad4",
"#S c #cccacc",
"#T c #bce2ec",
"#U c #846e4c",
"#V c #74bacc",
"#W c #a4aaa4",
"#X c #c4dae4",
"#Y c #a4d6e4",
"#Z c #ccd2d4",
"#0 c #b4babc",
"#1 c #94a6ac",
"#2 c #84c2d4",
"#3 c #8ccadc",
"#4 c #6cb6cc",
"#5 c #bcc6cc",
"#6 c #c4cecc",
"#7 c #7cbed4",
"#8 c #cccecc",
"a` c #bcd2dc",
"a. c #acb6bc",
"a# c #acd6e4",
"aa c #b4deec",
"ab c #747264",
"ac c #54a6bc",
"ad c #8c9a9c",
"ae c #d4e6ec",
"af c #000000",
"ag c #000000",
"ah c #000000",
"ai c #000000",
"aj c #000000",
"ak c #000000",
"al c #000000",
"am c #000000",
"an c #000000",
"ao c #000000",
"ap c #000000",
"aq c #000000",
"ar c #000000",
"as c #000000",
"at c #000000",
"au c #000000",
"av c #000000",
"aw c #000000",
"ax c #000000",
"ay c #000000",
"az c #000000",
"aA c #000000",
"aB c #000000",
"aC c #000000",
"aD c #000000",
"aE c #000000",
"aF c #000000",
"aG c #000000",
"aH c #000000",
"aI c #000000",
"aJ c #000000",
"aK c #000000",
"aL c #000000",
"aM c #000000",
"aN c #000000",
"aO c #000000",
"aP c #000000",
"aQ c #000000",
"aR c #000000",
"aS c #000000",
"aT c #000000",
"aU c #000000",
"aV c #000000",
"aW c #000000",
"aX c #000000",
"aY c #000000",
"aZ c #000000",
"a0 c #000000",
"a1 c #000000",
"a2 c #000000",
"a3 c #000000",
"a4 c #000000",
"a5 c #000000",
"a6 c #000000",
"a7 c #000000",
"a8 c #000000",
/* pixels */
"#N#N#N#N#N#N#N#N#N#N#N.w#N.w#N#N#N#N#N#N#N#N#N#N",
"#N#N#N#N#N#N#N#N.w#N#N#N#N#N#N#N#N#N#N#N#N#N#N#N",
"#N#N#N#N#N#N#N`C#6.W`B.j.U`e.b#D#N#N#N#N#N#N#N#N",
"#N#N#N#N#N#N#N#S#p.g.g.g#K#W#W.m`V#M`x`R#D#N#N#N",
"#N#N#N#N#N#N#N`l.`.2`f.4.L`v`v`u.f.nad.P.r#D#N#N",
"#N#N#N#N#N#N`x#N`2`2`2#P`m`J`p`K`c`y.J.J.5`j#N#N",
"#N#N#N#N#N#Jae#w.G#w.G#q#O`J..aa#L#C.Y.Z#t.a#N#N",
"#N#N#N#N#N#5#G#q.E.E#q#q`J#I.A`r.h#3.Q.3#t#`#N.w",
"#N#N#N#N.D`i#q#q#O..`t#I...A.H#L`h.Y`0`7#c.r#N#N",
"#N#N#N#N.1.i`J..`i`J.A.t`r.t#o`h`1.c`z`7.u`n#N.w",
"#N#N#N.U.I#H#T.A`a.A#H#Y#L`h`1`1.Y.c`J.k.u`T#N#N",
"#N#N#N`Qaa.A`a`L#Y`L`L#o`h`1#2#d#V#r#q`Z.u`W#N.w",
"#N#N.2`r#Ya##Y.h.h`h`1#3`1.Y.c.Q.F.S`E.1#v#a#N#N",
"#N`C`z#C.h#o`h`1`1`w.Y#2`0#7.c#4`K#mae#p`Y#.#N.w",
"#N`f.v`w`1`h#2#2.c#7.c.Q#V#V#V#l`5#m.sa..T#U#N#N",
"#e`0#V.c`0#2`4#l`4`4`4`4`4`4.y`w#x`I.k#B`N#U#N#N",
".e`O.F#l#4#l`D#E`D.N`D.N#E.N.N#h#m`I#Z#1.x`A#N#N",
".B.Q#b#b`O`.`Dacac.0`6ac`D`b`3`l.3#X#nad.7.p.w#N",
"#N.b#n`q`3#V.8#s`P`Pac`b`b`6.o`la``l`B.f.7`o`C#N",
"#N#N#N#N`C`B#F#y`1#V#E`P#i`k`Za`.l`l#u`u.d`S#8#N",
"#N#N#N.w#N`C`j`M`##5.3#o`w`Q#h#R`Q.2#K.fab.V`C#N",
"#N#N#N#N#N#N#N#N#N.b`x`M`##6#x#x#m#Zad.C`C.w#N#N",
"#N#N#N#N#N#N#N.w#N#N#N#N#N.D.q.W`V##.X.w#N.w#N#N",
"#N#N#N#N#N#N#N#N#N#N#N.w#N#N#N#N.w#D#N#N#N#N#N#N"
};
