/* XPM */
static const char *lua_16_xpm[] = {
/* width height num_colors chars_per_pixel */
"    16    16      256            2",
/* colors */
"`` c #fcfefc",
"`. c #fefffe",
"`# c #ffffff",
"`a c #fdfffd",
"`b c #fbfdfb",
"`c c #fdfdfc",
"`d c #dcdfdf",
"`e c #c2c5c5",
"`f c #d5d9d2",
"`g c #e2e4e0",
"`h c #efefed",
"`i c #fafcf9",
"`j c #feffff",
"`k c #eeeff0",
"`l c #bfc8ca",
"`m c #9ba7a8",
"`n c #95a1a2",
"`o c #929d9a",
"`p c #959e9d",
"`q c #9ea9a6",
"`r c #adb1ad",
"`s c #b7bbb5",
"`t c #d8d9d3",
"`u c #fafbf9",
"`v c #dde2e0",
"`w c #f5fbfc",
"`x c #eaf1f5",
"`y c #d8e8ea",
"`z c #c2d7db",
"`A c #a6c2c9",
"`B c #8cb0b5",
"`C c #83a4ab",
"`D c #789fac",
"`E c #8a9b99",
"`F c #e3e1dc",
"`G c #e6e8e9",
"`H c #dfecee",
"`I c #e5f3f9",
"`J c #e7f4fa",
"`K c #e4f4f8",
"`L c #d6f0f5",
"`M c #c7e9f0",
"`N c #addde8",
"`O c #91cfdc",
"`P c #88cbdb",
"`Q c #9aa7a1",
"`R c #d0ccc8",
"`S c #fdfffe",
"`T c #faf8f8",
"`U c #d1e0e2",
"`V c #e0f1f6",
"`W c #d5ecf4",
"`X c #c6e4ec",
"`Y c #c8e6ea",
"`Z c #c2e2e9",
"`0 c #b0dbe3",
"`1 c #9ed3de",
"`2 c #84c4d3",
"`3 c #9fd2dd",
"`4 c #aeaca4",
"`5 c #c1c1bc",
"`6 c #fbfefc",
"`7 c #fffffe",
"`8 c #e0e6e5",
".` c #c2e3e6",
".. c #c6e6ee",
".# c #c4e4ea",
".a c #c2e3e8",
".b c #acd8e1",
".c c #a3d6e0",
".d c #9fd1da",
".e c #92cdd9",
".f c #7cbfcc",
".g c #c3e1e8",
".h c #a0a099",
".i c #b8b5ab",
".j c #fcfffd",
".k c #f9f9f7",
".l c #bcd7de",
".m c #b5e0ea",
".n c #b2dbe2",
".o c #a6d6e1",
".p c #aad8df",
".q c #a6d5df",
".r c #93ceda",
".s c #88c7d4",
".t c #7ac0d1",
".u c #8cc5d2",
".v c #dbecf4",
".w c #919590",
".x c #b2ada2",
".y c #d3e0e3",
".z c #9cd2de",
".A c #aad6e3",
".B c #9fd2df",
".C c #97cdda",
".D c #90cbd7",
".E c #8bc8d6",
".F c #89c7d4",
".G c #7ec0cf",
".H c #6eb6c8",
".I c #b2d3dc",
".J c #dae9ed",
".K c #858a81",
".L c #aea594",
".M c #f2f2f0",
".N c #9bccd6",
".O c #8acad7",
".P c #98ceda",
".Q c #89c6d6",
".R c #81c2d0",
".S c #7fc1d1",
".T c #7ac0ce",
".U c #79bccd",
".V c #72b9cc",
".W c #84bfcc",
".X c #cddfe4",
".Y c #cddde4",
".Z c #7e7c6e",
".0 c #aa9c84",
".1 c #afd1d8",
".2 c #70b8cb",
".3 c #7dbdca",
".4 c #7ebfce",
".5 c #6db4c3",
".6 c #6bb3c2",
".7 c #69b3c3",
".8 c #69b4c2",
"#` c #69b5c2",
"#. c #63b1c0",
"## c #a9ced8",
"#a c #d2e0e2",
"#b c #c2d1d8",
"#c c #72705f",
"#d c #a8997e",
"#e c #88bbc7",
"#f c #6ebed2",
"#g c #68b9cf",
"#h c #60b3c7",
"#i c #52a7ba",
"#j c #51a4b9",
"#k c #57a5b5",
"#l c #5aa7ba",
"#m c #54a7b9",
"#n c #70b1be",
"#o c #c6d7db",
"#p c #c6dbe1",
"#q c #b9c5ca",
"#r c #69654d",
"#s c #ae9c7d",
"#t c #f7f9f7",
"#u c #dae1e2",
"#v c #b8cfd4",
"#w c #8cbec9",
"#x c #77bdd0",
"#y c #66b7c9",
"#z c #55acbe",
"#A c #4aa4b8",
"#B c #459fb3",
"#C c #99c3cc",
"#D c #c7d7dc",
"#E c #c6d6da",
"#F c #a7b6bc",
"#G c #6e6545",
"#H c #a9956e",
"#I c #fcffff",
"#J c #fefffd",
"#K c #fffefe",
"#L c #eeecea",
"#M c #cccbc9",
"#N c #b2bec2",
"#O c #a6c5ce",
"#P c #88bfcb",
"#Q c #7fb9c6",
"#R c #bcd0d7",
"#S c #bcd4dd",
"#T c #c6d5d8",
"#U c #8fa0a3",
"#V c #747362",
"#W c #b5ac9c",
"#X c #fafdfe",
"#Y c #fafdfb",
"#Z c #f9f8f7",
"#0 c #fbf8f6",
"#1 c #eeeceb",
"#2 c #d3d0ce",
"#3 c #d0d0d0",
"#4 c #c9cfd2",
"#5 c #c0cace",
"#6 c #b6c1c3",
"#7 c #999fa1",
"#8 c #dcdde0",
"a` c #fffeff",
"a. c #fdfefc",
"a# c #fcfefd",
"aa c #fefefd",
"ab c #e9eae7",
"ac c #e0e0de",
"ad c #d7dad8",
"ae c #efefef",
"af c #fcfdfb",
"ag c #000000",
"ah c #000000",
"ai c #000000",
"aj c #000000",
"ak c #000000",
"al c #000000",
"am c #000000",
"an c #000000",
"ao c #000000",
"ap c #000000",
"aq c #000000",
"ar c #000000",
"as c #000000",
"at c #000000",
"au c #000000",
"av c #000000",
"aw c #000000",
"ax c #000000",
"ay c #000000",
"az c #000000",
"aA c #000000",
"aB c #000000",
"aC c #000000",
"aD c #000000",
"aE c #000000",
"aF c #000000",
"aG c #000000",
"aH c #000000",
"aI c #000000",
"aJ c #000000",
"aK c #000000",
"aL c #000000",
"aM c #000000",
"aN c #000000",
"aO c #000000",
"aP c #000000",
"aQ c #000000",
"aR c #000000",
"aS c #000000",
"aT c #000000",
"aU c #000000",
"aV c #000000",
"aW c #000000",
"aX c #000000",
"aY c #000000",
"aZ c #000000",
"a0 c #000000",
"a1 c #000000",
"a2 c #000000",
"a3 c #000000",
"a4 c #000000",
"a5 c #000000",
"a6 c #000000",
"a7 c #000000",
"a8 c #000000",
/* pixels */
"```````````.`#`#`#`.`a`````b````",
"`````````c`d`e`f`g`h`i`a`a`j````",
"`````b`#`k`l`m`n`o`p`q`r`s`t`a``",
"```````u`v`w`x`y`z`A`B`C`D`E`F`#",
"```b`#`G`H`I`J`K`L`M`N`O`P`Q`R`#",
"```S`T`U`V`W`X`Y`Z`0`1`2`3`4`5`#",
"`6`7`8.`...#.a.b.c.d.e.f.g.h.i`#",
".j.k.l.m.n.o.p.q.r.s.t.u.v.w.x`#",
"`#.y.z.A.B.C.D.E.F.G.H.I.J.K.L`#",
".M.N.O.P.Q.R.S.T.U.V.W.X.Y.Z.0`#",
".1.2.3.4.5.6.7.8#`#.###a#b#c#d`#",
"#e#f#g#h#i#j#k#l#m#n#o#p#q#r#s`#",
"#t#u#v#w#x#y#z#A#B#C#D#E#F#G#H#I",
"#J#K`##L#M#N#O#P#Q#R#S#T#U#V#W#X",
"```b#Y`S#Z#0#1#2#3#4#5#6#7#8a`a.",
"```````ba#.j`S`#aaabacadae`#af`6"
};
